<svg version="1.1" width="10" height="10" xmlns="http://www.w3.org/2000/svg">
	<circle cx="5" cy="5" r="5" fill="#803B2F" />
	<circle cx="5" cy="5" r="3.5" fill="#9E3C2F" />
	<path d="M 4.439246594 3.011134512 C 1.4486027246 4.061861054 1 6.613596256 1.5233698453
		 8.264726262 C 1.5233698453 6.538542410 2.719630124 5.712977407 4.514013715
		 4.287008940 C 4.663547957 4.812372211 3.588777422 5.788031253 3.542054799
		 6.163286831 C 3.482238371 6.643620525 3.915890403 6.988851835 4.214945232
		 6.988851835 C 4.738315077 6.988851835 5.186917802 6.388448371 5.485972631
		 6.013192792 C 5.635506873 6.838757795 5.037383560 8.339780109 3.841123282
		 8.790089533 C 6.084109597 8.865143380 7.953260309 6.163286831 8.102794551
		 4.662264518 C 7.728972601 5.037520096 7.205602755 5.337721828 6.682232910
		 5.337721828 C 6.084109597 5.337721828 5.934575356 5.112573943 5.934575356
		 4.587210672 C 5.934575356 3.461443937 9 2.410731048 8.925232879 1.1348566201 C
		 7.878493189 2.260626086 6.158876718 2.406976308 4.439246594 3.011134512 Z"
		 fill="gold" />
</svg>
